<mxfile host="app.diagrams.net" agent="Mozilla/5.0 (Windows NT 10.0; Win64; x64) AppleWebKit/537.36 (KHTML, like Gecko) Chrome/138.0.0.0 Safari/537.36" version="28.0.6">
  <diagram name="PÃ¡gina-1" id="WkdhrtJlMCfBrtQM8K9b">
    <mxGraphModel grid="1" page="1" gridSize="10" guides="1" tooltips="1" connect="1" arrows="1" fold="1" pageScale="1" pageWidth="827" pageHeight="1169" math="0" shadow="0">
      <root>
        <mxCell id="0" />
        <mxCell id="1" parent="0" />
        <mxCell id="8NRa6u4Ln_OSPHEN5wOY-1" value="" style="ellipse;html=1;shape=startState;fillColor=#000000;strokeColor=#ff0000;" vertex="1" parent="1">
          <mxGeometry x="50" y="240" width="30" height="30" as="geometry" />
        </mxCell>
        <mxCell id="8NRa6u4Ln_OSPHEN5wOY-2" value="" style="html=1;verticalAlign=bottom;endArrow=open;endSize=8;strokeColor=#ff0000;rounded=0;fontSize=12;entryX=-0.003;entryY=-0.017;entryDx=0;entryDy=0;entryPerimeter=0;" edge="1" parent="1" source="8NRa6u4Ln_OSPHEN5wOY-1" target="B1OxZGB7kN87Q20v1KVD-11">
          <mxGeometry relative="1" as="geometry">
            <mxPoint x="320" y="250" as="targetPoint" />
          </mxGeometry>
        </mxCell>
        <mxCell id="8NRa6u4Ln_OSPHEN5wOY-29" value="Solicitar Cambio de Documento" style="edgeLabel;html=1;align=center;verticalAlign=middle;resizable=0;points=[];fontSize=12;" vertex="1" connectable="0" parent="8NRa6u4Ln_OSPHEN5wOY-2">
          <mxGeometry x="-0.3554" y="-2" relative="1" as="geometry">
            <mxPoint x="40" y="-2" as="offset" />
          </mxGeometry>
        </mxCell>
        <mxCell id="8NRa6u4Ln_OSPHEN5wOY-9" style="edgeStyle=none;curved=1;rounded=0;orthogonalLoop=1;jettySize=auto;html=1;entryX=0;entryY=0.5;entryDx=0;entryDy=0;fontSize=12;startSize=8;endSize=8;" edge="1" parent="1">
          <mxGeometry relative="1" as="geometry">
            <mxPoint x="357.9999999999998" y="255" as="sourcePoint" />
            <mxPoint x="357.9999999999998" y="255" as="targetPoint" />
          </mxGeometry>
        </mxCell>
        <mxCell id="8NRa6u4Ln_OSPHEN5wOY-10" style="edgeStyle=none;curved=1;rounded=0;orthogonalLoop=1;jettySize=auto;html=1;entryX=0;entryY=0.5;entryDx=0;entryDy=0;fontSize=12;startSize=8;endSize=8;" edge="1" parent="1">
          <mxGeometry relative="1" as="geometry">
            <mxPoint x="357.9999999999998" y="255" as="sourcePoint" />
            <mxPoint x="357.9999999999998" y="255" as="targetPoint" />
          </mxGeometry>
        </mxCell>
        <mxCell id="B1OxZGB7kN87Q20v1KVD-2" style="edgeStyle=orthogonalEdgeStyle;rounded=0;orthogonalLoop=1;jettySize=auto;html=1;entryX=0;entryY=0.5;entryDx=0;entryDy=0;strokeColor=light-dark(#FF9090,#FF9090);exitX=0.995;exitY=0.089;exitDx=0;exitDy=0;exitPerimeter=0;" edge="1" parent="1" source="B1OxZGB7kN87Q20v1KVD-11" target="B1OxZGB7kN87Q20v1KVD-1">
          <mxGeometry relative="1" as="geometry">
            <mxPoint x="469" y="255" as="sourcePoint" />
            <Array as="points">
              <mxPoint x="499" y="255" />
            </Array>
          </mxGeometry>
        </mxCell>
        <mxCell id="8NRa6u4Ln_OSPHEN5wOY-12" value="" style="html=1;verticalAlign=bottom;endArrow=open;endSize=8;strokeColor=#ff0000;rounded=0;fontSize=12;entryX=0.494;entryY=1.052;entryDx=0;entryDy=0;exitX=0.5;exitY=1;exitDx=0;exitDy=0;edgeStyle=orthogonalEdgeStyle;curved=1;entryPerimeter=0;" edge="1" parent="1" source="8NRa6u4Ln_OSPHEN5wOY-1" target="B1OxZGB7kN87Q20v1KVD-12">
          <mxGeometry relative="1" as="geometry">
            <mxPoint x="414" y="280" as="targetPoint" />
            <mxPoint x="410" y="140" as="sourcePoint" />
            <Array as="points">
              <mxPoint x="65" y="420" />
              <mxPoint x="414" y="420" />
            </Array>
          </mxGeometry>
        </mxCell>
        <mxCell id="8NRa6u4Ln_OSPHEN5wOY-28" value="Solicitar Agendamiento de Cita" style="edgeLabel;html=1;align=center;verticalAlign=middle;resizable=0;points=[];fontSize=12;" vertex="1" connectable="0" parent="8NRa6u4Ln_OSPHEN5wOY-12">
          <mxGeometry x="0.1342" y="-3" relative="1" as="geometry">
            <mxPoint x="-7" y="-3" as="offset" />
          </mxGeometry>
        </mxCell>
        <mxCell id="8NRa6u4Ln_OSPHEN5wOY-13" value="" style="html=1;verticalAlign=bottom;endArrow=open;endSize=8;strokeColor=#FF0000;rounded=0;fontSize=12;entryX=0.5;entryY=0;entryDx=0;entryDy=0;exitX=0.5;exitY=0;exitDx=0;exitDy=0;edgeStyle=orthogonalEdgeStyle;curved=1;" edge="1" parent="1" source="8NRa6u4Ln_OSPHEN5wOY-1" target="B1OxZGB7kN87Q20v1KVD-9">
          <mxGeometry relative="1" as="geometry">
            <mxPoint x="414" y="230" as="targetPoint" />
            <mxPoint x="413" y="180" as="sourcePoint" />
            <Array as="points">
              <mxPoint x="65" y="70" />
              <mxPoint x="415" y="70" />
            </Array>
          </mxGeometry>
        </mxCell>
        <mxCell id="8NRa6u4Ln_OSPHEN5wOY-30" value="Solicitar Cancelacion de Evento" style="edgeLabel;html=1;align=center;verticalAlign=middle;resizable=0;points=[];fontSize=12;" vertex="1" connectable="0" parent="8NRa6u4Ln_OSPHEN5wOY-13">
          <mxGeometry x="0.1174" y="-2" relative="1" as="geometry">
            <mxPoint as="offset" />
          </mxGeometry>
        </mxCell>
        <mxCell id="8NRa6u4Ln_OSPHEN5wOY-16" value="" style="html=1;verticalAlign=bottom;endArrow=open;endSize=8;strokeColor=#ff0000;rounded=0;fontSize=12;entryX=0;entryY=0.5;entryDx=0;entryDy=0;exitX=1;exitY=0.5;exitDx=0;exitDy=0;" edge="1" parent="1" source="B1OxZGB7kN87Q20v1KVD-1" target="B1OxZGB7kN87Q20v1KVD-19">
          <mxGeometry relative="1" as="geometry">
            <mxPoint x="1005.0000000000002" y="367.48" as="targetPoint" />
            <mxPoint x="630" y="252.48" as="sourcePoint" />
          </mxGeometry>
        </mxCell>
        <mxCell id="8NRa6u4Ln_OSPHEN5wOY-32" value="Administrador Acepta" style="edgeLabel;html=1;align=center;verticalAlign=middle;resizable=0;points=[];fontSize=12;" vertex="1" connectable="0" parent="8NRa6u4Ln_OSPHEN5wOY-16">
          <mxGeometry x="0.0989" y="-1" relative="1" as="geometry">
            <mxPoint x="33" y="-1" as="offset" />
          </mxGeometry>
        </mxCell>
        <mxCell id="8NRa6u4Ln_OSPHEN5wOY-18" value="" style="html=1;verticalAlign=bottom;endArrow=open;endSize=8;strokeColor=#ff0000;rounded=0;fontSize=12;entryX=0;entryY=0.5;entryDx=0;entryDy=0;exitX=1;exitY=0.5;exitDx=0;exitDy=0;" edge="1" parent="1" source="B1OxZGB7kN87Q20v1KVD-1" target="B1OxZGB7kN87Q20v1KVD-15">
          <mxGeometry relative="1" as="geometry">
            <mxPoint x="995.0000000000002" y="200" as="targetPoint" />
            <mxPoint x="630" y="250" as="sourcePoint" />
          </mxGeometry>
        </mxCell>
        <mxCell id="8NRa6u4Ln_OSPHEN5wOY-33" value="Administrador Rechaza" style="edgeLabel;html=1;align=center;verticalAlign=middle;resizable=0;points=[];fontSize=12;" vertex="1" connectable="0" parent="8NRa6u4Ln_OSPHEN5wOY-18">
          <mxGeometry x="0.1969" y="-3" relative="1" as="geometry">
            <mxPoint x="15" y="-6" as="offset" />
          </mxGeometry>
        </mxCell>
        <mxCell id="8NRa6u4Ln_OSPHEN5wOY-24" value="" style="html=1;verticalAlign=bottom;endArrow=open;endSize=8;strokeColor=#ff0000;rounded=0;fontSize=12;exitX=1;exitY=0.5;exitDx=0;exitDy=0;entryX=0;entryY=0.5;entryDx=0;entryDy=0;" edge="1" parent="1" source="B1OxZGB7kN87Q20v1KVD-19" target="8NRa6u4Ln_OSPHEN5wOY-26">
          <mxGeometry relative="1" as="geometry">
            <mxPoint x="1240" y="410" as="targetPoint" />
            <mxPoint x="1050.0000000000002" y="345" as="sourcePoint" />
            <Array as="points" />
          </mxGeometry>
        </mxCell>
        <mxCell id="8NRa6u4Ln_OSPHEN5wOY-25" value="" style="html=1;verticalAlign=bottom;endArrow=open;endSize=8;strokeColor=#ff0000;rounded=0;fontSize=12;entryX=0;entryY=0.5;entryDx=0;entryDy=0;exitX=1;exitY=0.5;exitDx=0;exitDy=0;" edge="1" parent="1" source="B1OxZGB7kN87Q20v1KVD-15" target="8NRa6u4Ln_OSPHEN5wOY-26">
          <mxGeometry relative="1" as="geometry">
            <mxPoint x="874" y="610" as="targetPoint" />
            <mxPoint x="1050.0000000000002" y="225" as="sourcePoint" />
          </mxGeometry>
        </mxCell>
        <mxCell id="8NRa6u4Ln_OSPHEN5wOY-26" value="" style="ellipse;html=1;shape=endState;fillColor=#000000;strokeColor=#ff0000;" vertex="1" parent="1">
          <mxGeometry x="1211" y="250" width="30" height="30" as="geometry" />
        </mxCell>
        <mxCell id="B1OxZGB7kN87Q20v1KVD-1" value="" style="rhombus;whiteSpace=wrap;html=1;" vertex="1" parent="1">
          <mxGeometry x="540" y="215" width="80" height="80" as="geometry" />
        </mxCell>
        <mxCell id="B1OxZGB7kN87Q20v1KVD-9" value="Pendiente" style="swimlane;fontStyle=0;childLayout=stackLayout;horizontal=1;startSize=30;horizontalStack=0;resizeParent=1;resizeParentMax=0;resizeLast=0;collapsible=1;marginBottom=0;whiteSpace=wrap;html=1;" vertex="1" parent="1">
          <mxGeometry x="330" y="195" width="170" height="120" as="geometry" />
        </mxCell>
        <mxCell id="B1OxZGB7kN87Q20v1KVD-10" value="Entry/Notificar Administrador" style="text;strokeColor=none;fillColor=none;align=left;verticalAlign=middle;spacingLeft=4;spacingRight=4;overflow=hidden;points=[[0,0.5],[1,0.5]];portConstraint=eastwest;rotatable=0;whiteSpace=wrap;html=1;" vertex="1" parent="B1OxZGB7kN87Q20v1KVD-9">
          <mxGeometry y="30" width="170" height="30" as="geometry" />
        </mxCell>
        <mxCell id="B1OxZGB7kN87Q20v1KVD-11" value="Do/Analizar Solicitud" style="text;strokeColor=none;fillColor=none;align=left;verticalAlign=middle;spacingLeft=4;spacingRight=4;overflow=hidden;points=[[0,0.5],[1,0.5]];portConstraint=eastwest;rotatable=0;whiteSpace=wrap;html=1;" vertex="1" parent="B1OxZGB7kN87Q20v1KVD-9">
          <mxGeometry y="60" width="170" height="30" as="geometry" />
        </mxCell>
        <mxCell id="B1OxZGB7kN87Q20v1KVD-12" value="Exit/Preparar Respuesta" style="text;strokeColor=none;fillColor=none;align=left;verticalAlign=middle;spacingLeft=4;spacingRight=4;overflow=hidden;points=[[0,0.5],[1,0.5]];portConstraint=eastwest;rotatable=0;whiteSpace=wrap;html=1;" vertex="1" parent="B1OxZGB7kN87Q20v1KVD-9">
          <mxGeometry y="90" width="170" height="30" as="geometry" />
        </mxCell>
        <mxCell id="B1OxZGB7kN87Q20v1KVD-13" value="Aceptada" style="swimlane;fontStyle=0;childLayout=stackLayout;horizontal=1;startSize=30;horizontalStack=0;resizeParent=1;resizeParentMax=0;resizeLast=0;collapsible=1;marginBottom=0;whiteSpace=wrap;html=1;" vertex="1" parent="1">
          <mxGeometry x="910" y="110" width="170" height="120" as="geometry" />
        </mxCell>
        <mxCell id="B1OxZGB7kN87Q20v1KVD-14" value="Entry/Generar Confirmacion" style="text;strokeColor=none;fillColor=none;align=left;verticalAlign=middle;spacingLeft=4;spacingRight=4;overflow=hidden;points=[[0,0.5],[1,0.5]];portConstraint=eastwest;rotatable=0;whiteSpace=wrap;html=1;" vertex="1" parent="B1OxZGB7kN87Q20v1KVD-13">
          <mxGeometry y="30" width="170" height="30" as="geometry" />
        </mxCell>
        <mxCell id="B1OxZGB7kN87Q20v1KVD-15" value="Do/Procesar Solicitud" style="text;strokeColor=none;fillColor=none;align=left;verticalAlign=middle;spacingLeft=4;spacingRight=4;overflow=hidden;points=[[0,0.5],[1,0.5]];portConstraint=eastwest;rotatable=0;whiteSpace=wrap;html=1;" vertex="1" parent="B1OxZGB7kN87Q20v1KVD-13">
          <mxGeometry y="60" width="170" height="30" as="geometry" />
        </mxCell>
        <mxCell id="B1OxZGB7kN87Q20v1KVD-16" value="Exit/Actualizar Estado" style="text;strokeColor=none;fillColor=none;align=left;verticalAlign=middle;spacingLeft=4;spacingRight=4;overflow=hidden;points=[[0,0.5],[1,0.5]];portConstraint=eastwest;rotatable=0;whiteSpace=wrap;html=1;" vertex="1" parent="B1OxZGB7kN87Q20v1KVD-13">
          <mxGeometry y="90" width="170" height="30" as="geometry" />
        </mxCell>
        <mxCell id="B1OxZGB7kN87Q20v1KVD-17" value="Rechazada" style="swimlane;fontStyle=0;childLayout=stackLayout;horizontal=1;startSize=30;horizontalStack=0;resizeParent=1;resizeParentMax=0;resizeLast=0;collapsible=1;marginBottom=0;whiteSpace=wrap;html=1;" vertex="1" parent="1">
          <mxGeometry x="910" y="280" width="170" height="120" as="geometry" />
        </mxCell>
        <mxCell id="B1OxZGB7kN87Q20v1KVD-18" value="Entry/Generar Rechazo" style="text;strokeColor=none;fillColor=none;align=left;verticalAlign=middle;spacingLeft=4;spacingRight=4;overflow=hidden;points=[[0,0.5],[1,0.5]];portConstraint=eastwest;rotatable=0;whiteSpace=wrap;html=1;" vertex="1" parent="B1OxZGB7kN87Q20v1KVD-17">
          <mxGeometry y="30" width="170" height="30" as="geometry" />
        </mxCell>
        <mxCell id="B1OxZGB7kN87Q20v1KVD-19" value="Do/Procesar Solicitud" style="text;strokeColor=none;fillColor=none;align=left;verticalAlign=middle;spacingLeft=4;spacingRight=4;overflow=hidden;points=[[0,0.5],[1,0.5]];portConstraint=eastwest;rotatable=0;whiteSpace=wrap;html=1;" vertex="1" parent="B1OxZGB7kN87Q20v1KVD-17">
          <mxGeometry y="60" width="170" height="30" as="geometry" />
        </mxCell>
        <mxCell id="B1OxZGB7kN87Q20v1KVD-20" value="Exit/Actualizar Estado" style="text;strokeColor=none;fillColor=none;align=left;verticalAlign=middle;spacingLeft=4;spacingRight=4;overflow=hidden;points=[[0,0.5],[1,0.5]];portConstraint=eastwest;rotatable=0;whiteSpace=wrap;html=1;" vertex="1" parent="B1OxZGB7kN87Q20v1KVD-17">
          <mxGeometry y="90" width="170" height="30" as="geometry" />
        </mxCell>
      </root>
    </mxGraphModel>
  </diagram>
</mxfile>
